<?xml version="1.0" encoding="UTF-8"?>
<!DOCTYPE svg PUBLIC "-//W3C//DTD SVG 1.1//EN" "http://www.w3.org/Graphics/SVG/1.1/DTD/svg11.dtd">
<!-- Creator: CorelDRAW X8 -->
<svg xmlns="http://www.w3.org/2000/svg" xml:space="preserve" width="779px" height="696px" version="1.1" style="shape-rendering:geometricPrecision; text-rendering:geometricPrecision; image-rendering:optimizeQuality; fill-rule:evenodd; clip-rule:evenodd"
viewBox="0 0 6956 6215"
 xmlns:xlink="http://www.w3.org/1999/xlink">
 <defs>
  <style type="text/css">
   <![CDATA[
    .fil3 {fill:none}
    .fil1 {fill:#DC2400}
    .fil0 {fill:black;fill-rule:nonzero}
    .fil2 {fill:white;fill-rule:nonzero}
   ]]>
  </style>
 </defs>
 <g id="Слой_x0020_1">
  <metadata id="CorelCorpID_0Corel-Layer"/>
  <path class="fil0" d="M1102 454l0 1c0,17 -6,32 -18,44 -13,11 -29,17 -50,17 -21,0 -38,-7 -51,-22 -13,-15 -20,-34 -20,-57l0 -33c0,-22 7,-41 20,-56 13,-15 30,-22 51,-22 21,0 38,5 50,16 12,12 18,26 18,45l0 0 -24 0c0,-13 -4,-23 -12,-30 -7,-8 -18,-12 -32,-12 -14,0 -25,6 -34,17 -8,12 -12,26 -12,42l0 33c0,17 4,31 12,43 9,11 20,17 34,17 14,0 25,-4 32,-12 8,-7 12,-18 12,-31l24 0z"/>
  <path id="1" class="fil0" d="M1243 376l0 137 -25 0 0 -117 -47 0 0 39c0,27 -4,47 -11,59 -7,13 -19,19 -37,19l-7 0 1 -21 5 0c9,0 15,-4 19,-13 3,-9 5,-24 5,-44l0 -59 97 0z"/>
  <path id="2" class="fil0" d="M1360 513c-1,-4 -2,-7 -2,-10 -1,-4 -1,-7 -1,-10 -5,7 -11,12 -18,16 -8,5 -16,7 -25,7 -14,0 -25,-4 -32,-11 -8,-7 -12,-17 -12,-30 0,-13 6,-24 16,-31 11,-7 26,-11 44,-11l27 0 0 -14c0,-8 -3,-14 -7,-19 -5,-5 -12,-7 -21,-7 -8,0 -15,2 -20,6 -5,4 -8,9 -8,15l-23 0 -1 -1c0,-10 5,-19 15,-27 9,-9 22,-13 38,-13 16,0 28,4 38,12 9,8 14,20 14,35l0 66c0,5 0,9 1,14 0,5 1,9 3,13l-26 0zm-42 -18c9,0 17,-2 25,-7 7,-4 12,-10 14,-16l0 -22 -28 0c-10,0 -18,2 -24,7 -6,5 -9,11 -9,18 0,6 1,11 5,15 4,3 10,5 17,5z"/>
  <path id="3" class="fil0" d="M1479 373c17,0 31,7 42,20 10,13 15,30 15,50l0 3c0,21 -6,38 -17,51 -11,13 -26,19 -45,19 -19,0 -34,-6 -45,-19 -11,-14 -16,-30 -16,-51l0 -3c0,0 0,-1 0,-1 0,-1 0,-1 0,-2l0 -30c0,-26 5,-45 15,-57 11,-13 26,-20 47,-21 11,0 20,-2 27,-4 6,-2 9,-6 9,-12l19 0 1 1c0,13 -4,23 -14,28 -9,5 -23,8 -40,8 -13,1 -23,4 -31,11 -8,7 -12,17 -12,30l1 1c5,-6 11,-12 19,-16 8,-4 16,-6 25,-6zm-5 20c-12,0 -21,5 -27,14 -6,10 -9,22 -9,36l0 3c0,15 3,27 9,36 6,10 15,15 27,15 12,0 21,-5 27,-15 7,-9 10,-21 10,-36l0 -3c0,-14 -3,-26 -10,-36 -6,-9 -15,-14 -27,-14z"/>
  <path id="4" class="fil0" d="M1647 513c-1,-4 -1,-7 -2,-10 0,-4 -1,-7 -1,-10 -4,7 -11,12 -18,16 -7,5 -16,7 -24,7 -15,0 -25,-4 -33,-11 -7,-7 -11,-17 -11,-30 0,-13 5,-24 16,-31 10,-7 25,-11 43,-11l27 0 0 -14c0,-8 -2,-14 -7,-19 -5,-5 -12,-7 -21,-7 -8,0 -15,2 -20,6 -5,4 -7,9 -7,15l-24 0 0 -1c-1,-10 4,-19 14,-27 10,-9 23,-13 38,-13 16,0 29,4 38,12 10,8 14,20 14,35l0 66c0,5 1,9 1,14 1,5 2,9 3,13l-26 0zm-42 -18c10,0 18,-2 25,-7 7,-4 12,-10 14,-16l0 -22 -28 0c-10,0 -18,2 -24,7 -6,5 -9,11 -9,18 0,6 2,11 6,15 3,3 9,5 16,5z"/>
  <path id="5" class="fil0" d="M1816 376l0 137 -25 0 0 -53 -34 0 -33 53 -27 0 35 -57c-8,-3 -15,-8 -20,-14 -5,-7 -7,-15 -7,-24 0,-12 5,-22 14,-30 9,-8 22,-12 39,-12l58 0zm-86 42c0,6 2,12 6,16 5,4 11,6 19,6l36 0 0 -45 -33 0c-9,0 -16,3 -21,7 -4,5 -7,10 -7,16z"/>
  <polygon id="6" class="fil0" points="1997,481 1997,481 2042,376 2074,376 2074,513 2049,513 2049,418 2048,418 2006,513 1988,513 1945,416 1945,416 1945,513 1920,513 1920,376 1952,376 "/>
  <path id="7" class="fil0" d="M2107 443c0,-20 5,-37 16,-50 11,-13 26,-20 45,-20 19,0 34,7 45,20 12,13 17,30 17,50l0 3c0,21 -5,38 -17,51 -11,13 -26,19 -45,19 -18,0 -34,-6 -45,-19 -11,-14 -16,-30 -16,-51l0 -3zm25 3c0,15 3,27 9,36 6,10 15,15 27,15 12,0 21,-5 28,-15 6,-9 9,-21 9,-36l0 -3c0,-14 -3,-26 -9,-36 -7,-9 -16,-14 -28,-14 -12,0 -21,5 -27,14 -6,10 -9,22 -9,36l0 3z"/>
  <path id="8" class="fil0" d="M2265 494c6,0 11,-6 14,-16 3,-11 5,-28 7,-50l3 -52 91 0 0 118 19 0 0 65 -26 0 0 -46 -97 0 0 46 -25 0 0 -65 14 0zm46 -66c-1,16 -2,29 -4,40 -2,10 -5,19 -8,26l56 0 0 -96 -42 0 -2 30z"/>
  <path id="9" class="fil0" d="M2483 516c-20,0 -36,-6 -47,-19 -11,-12 -16,-29 -16,-50l0 -5c0,-20 5,-36 17,-49 11,-13 25,-20 42,-20 18,0 32,6 41,18 9,11 14,26 14,45l0 13 -88 0 -1 1c0,14 3,25 10,34 6,8 15,13 28,13 8,0 16,-2 22,-4 6,-2 12,-6 16,-10l10 16c-5,5 -11,9 -19,12 -8,4 -18,5 -29,5zm-4 -123c-9,0 -16,3 -22,10 -6,7 -9,16 -11,26l1 1 62 0 0 -2c0,-10 -3,-19 -8,-25 -4,-7 -12,-10 -22,-10z"/>
  <path id="10" class="fil0" d="M2679 450c0,20 -5,36 -14,48 -10,12 -23,18 -39,18 -9,0 -16,-1 -23,-4 -6,-3 -11,-7 -16,-13l0 67 -25 0 0 -190 19 0 4 18c5,-7 10,-12 17,-15 7,-4 14,-6 23,-6 17,0 31,7 40,21 9,13 14,31 14,53l0 3zm-25 -3c0,-15 -3,-28 -9,-38 -6,-10 -15,-15 -27,-15 -7,0 -14,1 -19,5 -5,3 -9,7 -12,13l0 67c3,5 7,10 12,13 5,3 12,5 19,5 12,0 21,-5 27,-13 6,-9 9,-20 9,-34l0 -3z"/>
  <path id="11" class="fil0" d="M2795 513c-1,-4 -2,-7 -2,-10 -1,-4 -1,-7 -1,-10 -5,7 -11,12 -18,16 -8,5 -16,7 -25,7 -14,0 -25,-4 -32,-11 -8,-7 -12,-17 -12,-30 0,-13 6,-24 16,-31 11,-7 25,-11 44,-11l27 0 0 -14c0,-8 -3,-14 -8,-19 -5,-5 -11,-7 -20,-7 -9,0 -15,2 -20,6 -5,4 -8,9 -8,15l-23 0 -1 -1c0,-10 4,-19 14,-27 10,-9 23,-13 39,-13 16,0 28,4 38,12 9,8 14,20 14,35l0 66c0,5 0,9 1,14 0,5 1,9 2,13l-25 0zm-42 -18c9,0 17,-2 25,-7 7,-4 12,-10 14,-16l0 -22 -28 0c-10,0 -19,2 -25,7 -6,5 -9,11 -9,18 0,6 2,11 6,15 4,3 9,5 17,5z"/>
  <polygon id="12" class="fil0" points="2853,376 2878,376 2878,494 2940,494 2940,376 2965,376 2965,494 2982,494 2982,559 2956,559 2956,513 2853,513 "/>
  <polygon id="13" class="fil0" points="3095,376 3120,376 3120,513 3095,513 3095,416 3094,416 3033,513 3008,513 3008,376 3033,376 3033,474 3034,474 "/>
  <path id="14" class="fil0" d="M3266 376l0 137 -25 0 0 -53 -34 0 -32 53 -27 0 35 -57c-9,-3 -16,-8 -20,-14 -5,-7 -8,-15 -8,-24 0,-12 5,-22 15,-30 9,-8 22,-12 38,-12l58 0zm-85 42c0,6 2,12 6,16 4,4 10,6 19,6l35 0 0 -45 -33 0c-9,0 -16,3 -20,7 -5,5 -7,10 -7,16z"/>
  <polygon id="15" class="fil0" points="3408,455 3395,455 3395,513 3370,513 3370,376 3395,376 3395,434 3406,434 3455,376 3484,376 3485,377 3427,442 3489,513 3489,513 3458,513 "/>
  <path id="16" class="fil0" d="M3503 443c0,-20 5,-37 16,-50 11,-13 26,-20 45,-20 19,0 34,7 45,20 11,13 17,30 17,50l0 3c0,21 -6,38 -17,51 -11,13 -26,19 -45,19 -19,0 -34,-6 -45,-19 -11,-14 -16,-30 -16,-51l0 -3zm25 3c0,15 3,27 9,36 6,10 15,15 27,15 12,0 21,-5 28,-15 6,-9 9,-21 9,-36l0 -3c0,-14 -3,-26 -9,-36 -7,-9 -16,-14 -28,-14 -12,0 -21,5 -27,14 -6,10 -9,22 -9,36l0 3z"/>
  <polygon id="17" class="fil0" points="3768,513 3743,513 3743,455 3682,455 3682,513 3657,513 3657,376 3682,376 3682,435 3743,435 3743,376 3768,376 "/>
  <polygon id="18" class="fil0" points="3911,395 3865,395 3865,513 3840,513 3840,395 3795,395 3795,376 3911,376 "/>
  <path id="19" class="fil0" d="M3992 516c-19,0 -35,-6 -46,-19 -11,-12 -16,-29 -16,-50l0 -5c0,-20 5,-36 17,-49 11,-13 25,-20 42,-20 18,0 32,6 41,18 9,11 14,26 14,45l0 13 -88 0 -1 1c0,14 3,25 10,34 6,8 15,13 27,13 9,0 16,-2 23,-4 6,-2 12,-6 16,-10l10 16c-5,5 -11,9 -19,12 -8,4 -18,5 -30,5zm-3 -123c-9,0 -16,3 -22,10 -6,7 -9,16 -11,26l1 1 62 0 0 -2c0,-10 -3,-19 -8,-25 -5,-7 -12,-10 -22,-10z"/>
  <polygon id="20" class="fil0" points="4183,513 4158,513 4158,455 4097,455 4097,513 4072,513 4072,376 4097,376 4097,435 4158,435 4158,376 4183,376 "/>
  <polygon id="21" class="fil0" points="4326,395 4281,395 4281,513 4256,513 4256,395 4211,395 4211,376 4326,376 "/>
  <path id="22" class="fil0" d="M4436 513c-1,-4 -2,-7 -2,-10 -1,-4 -1,-7 -1,-10 -5,7 -11,12 -18,16 -8,5 -16,7 -25,7 -14,0 -25,-4 -32,-11 -8,-7 -12,-17 -12,-30 0,-13 6,-24 16,-31 11,-7 25,-11 44,-11l27 0 0 -14c0,-8 -3,-14 -7,-19 -5,-5 -12,-7 -21,-7 -8,0 -15,2 -20,6 -5,4 -8,9 -8,15l-23 0 -1 -1c0,-10 5,-19 14,-27 10,-9 23,-13 39,-13 16,0 28,4 38,12 9,8 14,20 14,35l0 66c0,5 0,9 1,14 0,5 1,9 3,13l-26 0zm-42 -18c9,0 17,-2 25,-7 7,-4 12,-10 14,-16l0 -22 -28 0c-10,0 -18,2 -24,7 -6,5 -9,11 -9,18 0,6 1,11 5,15 4,3 10,5 17,5z"/>
  <polygon class="fil0" points="1110,1045 1085,1045 1085,963 995,963 995,1045 970,1045 970,859 995,859 995,943 1085,943 1085,859 1110,859 "/>
  <path id="1" class="fil0" d="M1206 1047c-19,0 -35,-6 -46,-19 -11,-12 -16,-29 -16,-49l0 -6c0,-20 5,-36 17,-49 11,-13 25,-20 41,-20 19,0 33,6 42,18 9,11 14,26 14,45l0 14 -88 0 -1 0c0,14 3,25 9,34 7,8 16,13 28,13 9,0 16,-1 23,-4 6,-2 12,-6 16,-10l10 16c-5,5 -11,9 -19,12 -9,4 -18,5 -30,5zm-4 -123c-8,0 -16,4 -21,10 -6,7 -9,16 -11,26l1 1 62 0 0 -2c0,-10 -3,-18 -8,-25 -5,-7 -12,-10 -23,-10z"/>
  <path id="2" class="fil0" d="M1491 859l0 123c0,21 -7,37 -20,48 -14,12 -31,17 -51,17 -21,0 -37,-5 -50,-17 -13,-11 -19,-27 -19,-48l0 -123 25 0 0 123c0,15 4,26 12,34 8,8 19,12 32,12 13,0 24,-4 33,-12 8,-8 12,-19 12,-34l0 -123 26 0z"/>
  <polygon id="3" class="fil0" points="1591,932 1634,859 1665,859 1606,951 1666,1045 1636,1045 1592,971 1547,1045 1517,1045 1577,951 1518,859 1548,859 "/>
  <polygon id="4" class="fil0" points="1697,1061 1675,1061 1753,859 1774,859 "/>
  <path id="5" class="fil0" d="M1940 859l0 123c0,21 -7,37 -20,48 -13,12 -31,17 -51,17 -20,0 -37,-5 -50,-17 -13,-11 -19,-27 -19,-48l0 -123 25 0 0 123c0,15 4,26 12,34 8,8 19,12 32,12 13,0 24,-4 33,-12 8,-8 13,-19 13,-34l0 -123 25 0z"/>
  <polygon id="6" class="fil0" points="2007,1045 1982,1045 1982,859 2007,859 "/>
  <path id="7" class="fil0" d="M2118 1025c7,0 12,-5 15,-16 3,-11 5,-28 6,-50l4 -52 91 0 0 118 18 0 0 65 -25 0 0 -45 -97 0 0 45 -25 0 0 -65 13 0zm46 -66c-1,16 -2,29 -4,40 -1,10 -4,19 -8,26l57 0 0 -96 -43 0 -2 30z"/>
  <polygon id="8" class="fil0" points="2366,907 2391,907 2391,1045 2366,1045 2366,947 2365,947 2304,1045 2279,1045 2279,907 2304,907 2304,1005 2305,1005 "/>
  <path id="9" class="fil0" d="M2481 964c9,0 17,-1 21,-5 5,-3 7,-8 7,-14 0,-6 -2,-11 -8,-15 -5,-4 -12,-6 -22,-6 -9,0 -16,2 -22,6 -6,4 -8,10 -8,15l-24 0 0 0c-1,-12 4,-22 15,-29 10,-8 23,-11 39,-11 17,0 30,3 40,10 10,7 15,17 15,30 0,6 -2,12 -6,17 -4,5 -10,9 -17,12 8,3 15,7 19,12 4,6 7,12 7,20 0,13 -6,23 -16,30 -11,7 -25,11 -42,11 -16,0 -29,-4 -40,-11 -12,-7 -17,-18 -17,-31l1 -1 23 0c0,6 3,12 10,17 6,5 13,7 23,7 10,0 18,-2 24,-6 6,-5 8,-10 8,-16 0,-7 -2,-13 -7,-16 -5,-4 -13,-5 -23,-5l-27 0 0 -21 27 0z"/>
  <path id="10" class="fil0" d="M2652 1045c-1,-5 -1,-8 -2,-11 0,-4 -1,-7 -1,-10 -4,7 -11,12 -18,17 -8,4 -16,6 -24,6 -15,0 -26,-3 -33,-11 -8,-7 -11,-17 -11,-30 0,-13 5,-23 16,-31 10,-7 25,-11 43,-11l27 0 0 -14c0,-8 -2,-14 -7,-19 -5,-4 -12,-7 -21,-7 -8,0 -15,2 -20,6 -5,4 -7,9 -7,15l-24 0 0 -1c-1,-10 4,-19 14,-27 10,-8 23,-13 38,-13 16,0 29,4 38,12 10,8 14,20 14,35l0 66c0,5 1,10 1,14 1,5 1,9 3,14l-26 0zm-42 -19c9,0 18,-2 25,-7 7,-4 12,-10 14,-16l0 -22 -28 0c-10,0 -18,2 -24,8 -6,5 -9,11 -9,17 0,7 2,11 6,15 3,4 9,5 16,5z"/>
  <path id="11" class="fil0" d="M2797 907l25 0 0 138 -25 0 0 -98 -1 0 -60 98 -25 0 0 -138 25 0 0 98 0 0 61 -98zm7 -57l0 1c0,10 -3,18 -10,24 -7,6 -16,9 -27,9 -12,0 -21,-3 -28,-9 -7,-6 -10,-14 -10,-24l0 -1 19 0c0,6 2,11 5,14 3,3 7,5 14,5 6,0 10,-2 13,-5 3,-4 5,-8 5,-14l19 0z"/>
  <polygon id="12" class="fil0" points="2970,1045 2945,1045 2945,986 2884,986 2884,1045 2859,1045 2859,907 2884,907 2884,967 2945,967 2945,907 2970,907 "/>
  <g id="_217956237136">
   <circle class="fil1" cx="199" cy="421" r="199"/>
   <path class="fil2" d="M292 410c6,0 10,5 10,11 0,5 -4,10 -10,10l-186 0c-6,0 -11,-5 -11,-10l0 0c0,-6 5,-11 11,-11l10 0 176 0z"/>
  </g>
  <g id="_217956235632">
   <circle class="fil1" cx="199" cy="952" r="199"/>
   <path class="fil2" d="M292 941c6,0 10,5 10,11 0,5 -4,10 -10,10l-186 0c-6,0 -11,-5 -11,-10l0 0c0,-6 5,-11 11,-11l10 0 176 0z"/>
  </g>
  <rect class="fil3" width="6956" height="6215"/>
  <path class="fil0" d="M1111 1500c0,22 -7,41 -21,56 -14,15 -32,22 -55,23 -21,-1 -39,-8 -52,-23 -14,-15 -21,-34 -21,-56l0 -33c0,-23 7,-42 21,-57 13,-15 31,-22 52,-22 23,0 41,7 55,22 14,15 21,34 21,57l0 33zm-25 -33c0,-17 -5,-31 -14,-42 -9,-11 -21,-16 -37,-16 -14,0 -26,5 -35,16 -8,11 -13,25 -13,42l0 33c0,17 5,31 13,42 9,11 21,16 35,16 16,0 28,-5 37,-16 9,-11 14,-25 14,-42l0 -33z"/>
  <polygon id="1" class="fil0" points="1250,1458 1204,1458 1204,1576 1179,1576 1179,1458 1135,1458 1135,1438 1250,1438 "/>
  <path id="2" class="fil0" d="M1329 1559c8,0 15,-3 21,-8 5,-5 8,-11 8,-19l23 0 0 1c1,12 -4,22 -15,32 -11,9 -23,13 -37,14 -19,-1 -34,-7 -44,-20 -11,-13 -16,-30 -16,-49l0 -6c0,-19 5,-35 16,-49 10,-13 25,-19 44,-19 16,0 28,4 38,14 10,9 15,21 14,35l0 1 -23 0c0,-9 -2,-16 -8,-22 -5,-6 -12,-9 -21,-9 -12,0 -21,5 -27,15 -5,9 -8,21 -8,34l0 6c0,14 3,25 8,35 6,9 15,14 27,14z"/>
  <path id="3" class="fil0" d="M1453 1525l5 17 0 0 34 -104 28 0 -58 159c-3,9 -8,17 -15,24 -6,7 -15,10 -26,10 -2,0 -5,0 -8,0 -3,-1 -5,-1 -7,-2l2 -19c0,0 1,0 5,0 4,0 6,0 7,0 5,0 9,-2 13,-7 3,-5 6,-10 8,-16l6 -14 -51 -135 28 0 29 87z"/>
  <polygon id="4" class="fil0" points="1648,1458 1603,1458 1603,1576 1578,1576 1578,1458 1533,1458 1533,1438 1648,1438 "/>
  <path id="5" class="fil0" d="M1728 1559c7,0 14,-3 20,-8 6,-5 9,-11 9,-19l22 0 1 1c0,12 -5,22 -16,32 -10,9 -22,13 -36,14 -20,-1 -34,-7 -45,-20 -11,-13 -16,-30 -16,-49l0 -6c0,-19 5,-35 16,-49 11,-13 25,-19 45,-19 15,0 28,4 37,14 10,9 15,21 15,35l-1 1 -22 0c0,-9 -3,-16 -9,-22 -5,-6 -12,-9 -20,-9 -13,0 -22,5 -27,15 -6,9 -9,21 -9,34l0 6c0,14 3,25 9,35 5,9 14,14 27,14z"/>
  <polygon id="6" class="fil0" points="1915,1458 1870,1458 1870,1576 1845,1576 1845,1458 1800,1458 1800,1438 1915,1438 "/>
  <path id="7" class="fil0" d="M1943 1576l0 -138 54 0c18,0 32,3 42,10 10,6 15,15 15,28 0,7 -2,12 -6,17 -3,5 -9,9 -16,12 9,2 15,6 20,12 5,6 7,12 7,20 0,13 -5,22 -14,29 -9,7 -22,10 -39,10l-63 0zm25 -60l0 41 38 0c9,0 16,-2 21,-6 5,-3 7,-8 7,-15 0,-7 -2,-12 -7,-15 -5,-4 -12,-5 -21,-5l-38 0zm0 -20l29 0c11,0 19,-1 24,-4 6,-4 8,-8 8,-15 0,-6 -2,-11 -8,-14 -5,-4 -13,-5 -24,-5l-29 0 0 38z"/>
  <polygon id="8" class="fil0" points="2177,1438 2202,1438 2202,1576 2177,1576 2177,1478 2176,1478 2116,1576 2091,1576 2091,1438 2116,1438 2116,1536 2116,1536 "/>
  <path id="9" class="fil0" d="M2296 1579c-20,-1 -35,-7 -47,-19 -11,-13 -16,-30 -16,-50l0 -6c0,-20 6,-36 17,-49 11,-13 25,-19 42,-19 18,0 32,5 41,17 9,11 14,26 14,46l0 13 -88 0 0 0c0,14 3,25 9,34 6,9 15,13 28,13 8,0 16,-1 22,-4 6,-2 12,-5 16,-10l10 17c-5,4 -11,8 -19,12 -8,3 -18,4 -29,5zm-4 -124c-9,0 -16,4 -22,10 -6,7 -9,16 -10,26l0 1 62 0 0 -2c0,-10 -3,-18 -7,-25 -5,-6 -13,-10 -23,-10z"/>
  <path id="10" class="fil0" d="M2440 1576l0 -138 54 0c18,0 32,3 42,10 10,6 15,15 15,28 0,7 -2,12 -5,17 -4,5 -10,9 -17,12 9,2 15,6 20,12 5,6 7,12 7,20 0,13 -4,22 -14,29 -9,7 -22,10 -39,10l-63 0zm25 -60l0 41 38 0c9,0 16,-2 21,-6 5,-3 7,-8 7,-15 0,-7 -2,-12 -7,-15 -5,-4 -12,-5 -21,-5l-38 0zm0 -20l29 0c11,0 19,-1 24,-4 6,-4 8,-8 8,-15 0,-6 -2,-11 -8,-14 -5,-4 -13,-5 -24,-5l-29 0 0 38z"/>
  <path id="11" class="fil0" d="M2672 1576c0,-4 -1,-8 -2,-11 0,-3 0,-7 0,-10 -5,7 -11,12 -19,17 -7,4 -15,6 -24,7 -14,-1 -25,-4 -33,-12 -7,-7 -11,-17 -11,-30 0,-13 5,-23 16,-31 11,-7 25,-11 43,-11l28 0 0 -13c0,-8 -3,-15 -8,-20 -5,-4 -12,-7 -21,-7 -8,0 -14,2 -19,6 -5,5 -8,9 -8,15l-24 0 0 0c-1,-10 4,-20 14,-28 10,-8 23,-12 39,-12 15,0 28,4 37,12 10,7 15,19 15,34l0 66c0,5 0,10 0,14 1,5 2,9 3,14l-26 0zm-41 -19c9,0 17,-2 24,-6 8,-5 12,-11 15,-17l0 -22 -29 0c-10,0 -18,3 -24,8 -6,5 -9,11 -9,18 0,6 2,11 6,14 4,4 9,5 17,5z"/>
  <polygon id="12" class="fil0" points="2826,1516 2819,1516 2819,1576 2794,1576 2794,1516 2786,1516 2748,1576 2716,1576 2768,1503 2720,1438 2751,1438 2787,1495 2794,1495 2794,1438 2819,1438 2819,1495 2826,1495 2862,1438 2892,1438 2845,1503 2897,1576 2865,1576 "/>
  <polygon id="13" class="fil0" points="3030,1576 3005,1576 3005,1517 2943,1517 2943,1576 2918,1576 2918,1438 2943,1438 2943,1498 3005,1498 3005,1438 3030,1438 "/>
  <path id="14" class="fil0" d="M3060 1506c0,-21 6,-37 17,-51 11,-13 26,-19 45,-19 19,0 34,6 45,19 11,14 17,30 17,51l0 3c0,20 -6,37 -17,50 -11,13 -26,19 -45,20 -19,-1 -34,-7 -45,-20 -11,-13 -17,-30 -17,-50l0 -3zm26 3c0,14 3,26 9,36 6,9 15,14 27,14 12,0 21,-5 27,-14 7,-10 10,-22 10,-36l0 -3c0,-15 -3,-27 -10,-36 -6,-10 -15,-15 -27,-15 -12,0 -21,5 -27,15 -6,9 -9,21 -9,36l0 3z"/>
  <path id="15" class="fil0" d="M3301 1438l25 0 0 138 -25 0 0 -98 -1 0 -61 98 -25 0 0 -138 25 0 0 98 1 0 61 -98zm7 -56l0 0c0,10 -3,18 -10,24 -7,7 -16,10 -28,10 -11,0 -21,-3 -28,-10 -6,-6 -10,-14 -9,-24l0 0 19 0c0,5 2,10 5,13 2,4 7,5 13,5 6,0 11,-1 14,-5 3,-3 4,-8 4,-13l20 0z"/>
  <polygon id="16" class="fil0" points="3514,1438 3539,1438 3539,1576 3514,1576 3514,1478 3513,1478 3452,1576 3427,1576 3427,1438 3452,1438 3452,1536 3453,1536 "/>
  <polygon id="17" class="fil0" points="3687,1576 3661,1576 3661,1517 3600,1517 3600,1576 3575,1576 3575,1438 3600,1438 3600,1498 3661,1498 3661,1438 3687,1438 "/>
  <path id="18" class="fil0" d="M3717 1510c0,-23 5,-40 15,-54 9,-14 22,-20 39,-20 8,0 15,1 21,3 6,3 11,6 15,10l0 -72 25 0 0 74c5,-5 11,-9 17,-11 6,-3 14,-4 22,-4 17,0 30,6 39,20 10,13 15,31 15,54l0 2c0,20 -5,36 -15,48 -9,12 -22,18 -39,19 -8,-1 -16,-2 -22,-4 -6,-3 -12,-7 -17,-12l0 66 -25 0 0 -64c-4,4 -10,8 -15,10 -6,2 -13,3 -21,4 -17,-1 -30,-7 -39,-19 -10,-12 -15,-28 -15,-48l0 -2zm183 0c0,-16 -4,-29 -10,-39 -6,-11 -15,-16 -27,-16 -7,0 -13,2 -18,5 -5,4 -9,8 -13,14l0 67c4,6 8,10 13,13 5,3 11,5 18,5 12,0 21,-4 27,-13 6,-9 10,-20 10,-34l0 -2zm-158 2c0,14 3,25 9,34 6,9 15,13 26,13 7,0 13,-2 18,-5 5,-3 9,-7 12,-13l0 -69c-3,-5 -7,-9 -12,-12 -5,-3 -11,-5 -17,-5 -12,0 -21,5 -27,16 -6,10 -9,23 -9,39l0 2z"/>
  <path id="19" class="fil0" d="M3950 1506c0,-21 5,-37 16,-51 11,-13 26,-19 45,-19 19,0 34,6 45,19 11,14 17,30 17,51l0 3c0,20 -6,37 -17,50 -11,13 -26,19 -45,20 -19,-1 -34,-7 -45,-20 -11,-13 -16,-30 -16,-50l0 -3zm25 3c0,14 3,26 9,36 6,9 15,14 27,14 12,0 21,-5 27,-14 7,-10 10,-22 10,-36l0 -3c0,-15 -3,-27 -10,-36 -6,-10 -15,-15 -27,-15 -12,0 -21,5 -27,15 -6,9 -9,21 -9,36l0 3z"/>
  <path id="20" class="fil0" d="M4221 1512c0,20 -5,36 -15,48 -9,12 -22,18 -39,19 -8,-1 -16,-2 -22,-5 -7,-3 -12,-7 -17,-13l0 68 -25 0 0 -191 20 0 4 18c4,-7 10,-12 16,-15 7,-4 15,-5 24,-5 17,0 30,6 39,20 10,13 15,31 15,54l0 2zm-25 -2c0,-16 -3,-29 -10,-39 -6,-10 -15,-15 -27,-15 -7,0 -13,2 -18,5 -5,3 -9,8 -13,13l0 67c4,6 8,10 13,13 5,3 11,5 18,5 12,0 21,-4 27,-13 7,-9 10,-20 10,-34l0 -2z"/>
  <polygon id="21" class="fil0" points="4330,1543 4331,1543 4376,1438 4407,1438 4407,1576 4382,1576 4382,1480 4381,1480 4339,1576 4321,1576 4279,1478 4278,1478 4278,1576 4253,1576 4253,1438 4285,1438 "/>
  <path id="22" class="fil0" d="M4530 1576c0,-4 -1,-8 -2,-11 0,-3 0,-7 0,-10 -5,7 -11,12 -19,17 -7,4 -15,6 -24,7 -14,-1 -25,-4 -33,-12 -7,-7 -11,-17 -11,-30 0,-13 5,-23 16,-31 11,-7 25,-11 43,-11l28 0 0 -13c0,-8 -3,-15 -8,-20 -5,-4 -12,-7 -21,-7 -8,0 -14,2 -19,6 -5,5 -8,9 -8,15l-24 0 0 0c-1,-10 4,-20 14,-28 10,-8 23,-12 39,-12 15,0 28,4 37,12 10,7 15,19 15,34l0 66c0,5 0,10 0,14 1,5 2,9 3,14l-26 0zm-41 -19c9,0 17,-2 24,-6 8,-5 12,-11 15,-17l0 -22 -29 0c-10,0 -18,3 -24,8 -6,5 -9,11 -9,18 0,6 2,11 6,14 4,4 9,5 17,5z"/>
  <polygon id="23" class="fil0" points="4589,1438 4614,1438 4614,1556 4675,1556 4675,1438 4701,1438 4701,1556 4717,1556 4717,1621 4692,1621 4692,1576 4589,1576 "/>
  <polygon id="24" class="fil0" points="4830,1438 4855,1438 4855,1576 4830,1576 4830,1478 4830,1478 4769,1576 4744,1576 4744,1438 4769,1438 4769,1536 4770,1536 "/>
  <polygon id="25" class="fil0" points="4978,1438 5003,1438 5003,1576 4978,1576 4978,1478 4978,1478 4917,1576 4892,1576 4892,1438 4917,1438 4917,1536 4918,1536 "/>
  <path id="26" class="fil0" d="M5099 1506c0,-21 5,-37 16,-51 11,-13 26,-19 45,-19 19,0 34,6 45,19 12,14 17,30 17,51l0 3c0,20 -5,37 -17,50 -11,13 -26,19 -45,20 -19,-1 -34,-7 -45,-20 -11,-13 -16,-30 -16,-50l0 -3zm25 3c0,14 3,26 9,36 6,9 15,14 27,14 12,0 21,-5 28,-14 6,-10 9,-22 9,-36l0 -3c0,-15 -3,-27 -9,-36 -7,-10 -16,-15 -28,-15 -12,0 -21,5 -27,15 -6,9 -9,21 -9,36l0 3z"/>
  <path id="27" class="fil0" d="M5313 1436c18,0 32,6 42,19 10,14 15,30 15,51l0 3c0,20 -5,37 -17,50 -11,13 -26,19 -45,20 -18,-1 -34,-7 -45,-20 -11,-13 -16,-30 -16,-50l0 -3c0,-1 0,-2 0,-2 0,0 0,-1 0,-2l0 -29c0,-27 5,-46 16,-58 10,-12 26,-19 46,-20 12,-1 21,-2 27,-5 6,-2 10,-6 10,-12l19 0 0 1c0,13 -4,23 -13,28 -10,6 -23,9 -41,9 -13,0 -23,4 -31,10 -8,7 -12,17 -11,31l0 0c5,-6 11,-11 19,-15 8,-4 16,-6 25,-6zm-5 19c-12,0 -21,5 -27,15 -6,9 -9,21 -9,36l0 3c0,14 3,26 9,36 6,9 15,14 27,14 12,0 21,-5 28,-14 6,-10 9,-22 9,-36l0 -3c0,-15 -3,-27 -9,-36 -7,-10 -16,-15 -28,-15z"/>
  <path id="28" class="fil0" d="M5546 1576c-1,-4 -1,-8 -2,-11 0,-3 -1,-7 -1,-10 -4,7 -11,12 -18,17 -8,4 -16,6 -24,7 -15,-1 -25,-4 -33,-12 -8,-7 -11,-17 -11,-30 0,-13 5,-23 16,-31 10,-7 25,-11 43,-11l27 0 0 -13c0,-8 -2,-15 -7,-20 -5,-4 -12,-7 -21,-7 -8,0 -15,2 -20,6 -5,5 -7,9 -7,15l-24 0 0 0c-1,-10 4,-20 14,-28 10,-8 23,-12 38,-12 16,0 29,4 38,12 10,7 14,19 14,34l0 66c0,5 1,10 1,14 1,5 1,9 3,14l-26 0zm-42 -19c9,0 18,-2 25,-6 7,-5 12,-11 14,-17l0 -22 -28 0c-10,0 -18,3 -24,8 -6,5 -9,11 -9,18 0,6 2,11 6,14 3,4 9,5 16,5z"/>
  <path id="29" class="fil0" d="M5605 1576l0 -138 54 0c18,0 32,3 42,10 10,6 15,15 15,28 0,7 -2,12 -6,17 -3,5 -9,9 -16,12 9,2 15,6 20,12 5,6 7,12 7,20 0,13 -5,22 -14,29 -9,7 -22,10 -39,10l-63 0zm25 -60l0 41 38 0c9,0 16,-2 21,-6 5,-3 7,-8 7,-15 0,-7 -2,-12 -7,-15 -5,-4 -12,-5 -21,-5l-38 0zm0 -20l29 0c11,0 19,-1 24,-4 6,-4 8,-8 8,-15 0,-6 -2,-11 -8,-14 -5,-4 -13,-5 -24,-5l-29 0 0 38z"/>
  <polygon id="30" class="fil0" points="5857,1458 5812,1458 5812,1576 5787,1576 5787,1458 5742,1458 5742,1438 5857,1438 "/>
  <path id="31" class="fil0" d="M5876 1506c0,-21 5,-37 16,-51 11,-13 26,-19 45,-19 19,0 34,6 45,19 12,14 17,30 17,51l0 3c0,20 -5,37 -17,50 -11,13 -26,19 -45,20 -18,-1 -34,-7 -45,-20 -11,-13 -16,-30 -16,-50l0 -3zm25 3c0,14 3,26 9,36 6,9 15,14 27,14 12,0 21,-5 28,-14 6,-10 9,-22 9,-36l0 -3c0,-15 -3,-27 -9,-36 -7,-10 -16,-15 -28,-15 -12,0 -21,5 -27,15 -6,9 -9,21 -9,36l0 3z"/>
  <g id="_217956241136">
   <circle class="fil1" cx="199" cy="1483" r="199"/>
   <path class="fil2" d="M292 1472c6,0 10,5 10,11 0,6 -4,10 -10,10l-186 0c-6,0 -11,-4 -11,-10l0 0c0,-6 5,-11 11,-11l10 0 176 0z"/>
  </g>
  <path class="fil0" d="M1111 2031c0,23 -7,41 -21,56 -14,15 -32,23 -55,23 -21,0 -39,-8 -52,-23 -14,-15 -21,-33 -21,-56l0 -33c0,-23 7,-41 21,-56 13,-15 31,-23 52,-23 23,0 41,8 55,23 14,15 21,33 21,56l0 33zm-25 -33c0,-17 -5,-31 -14,-42 -9,-11 -21,-16 -37,-16 -14,0 -26,5 -35,16 -8,11 -13,25 -13,42l0 33c0,17 5,31 13,42 9,11 21,16 35,16 16,0 28,-5 37,-16 9,-11 14,-25 14,-42l0 -33z"/>
  <polygon id="1" class="fil0" points="1250,1989 1204,1989 1204,2107 1179,2107 1179,1989 1135,1989 1135,1969 1250,1969 "/>
  <path id="2" class="fil0" d="M1329 2090c8,0 15,-3 21,-8 5,-5 8,-11 8,-19l23 0 0 1c1,12 -4,23 -15,32 -11,9 -23,14 -37,14 -19,0 -34,-7 -44,-20 -11,-13 -16,-30 -16,-49l0 -6c0,-19 5,-35 16,-48 10,-14 25,-20 44,-20 16,0 28,5 38,14 10,10 15,21 14,35l0 1 -23 0c0,-9 -2,-16 -8,-22 -5,-6 -12,-8 -21,-8 -12,0 -21,4 -27,14 -5,9 -8,21 -8,34l0 6c0,14 3,25 8,35 6,9 15,14 27,14z"/>
  <path id="3" class="fil0" d="M1453 2056l5 17 0 0 34 -104 28 0 -58 159c-3,9 -8,17 -15,24 -6,7 -15,11 -26,11 -2,0 -5,-1 -8,-1 -3,-1 -5,-1 -7,-1l2 -20c0,0 1,0 5,0 4,0 6,0 7,0 5,0 9,-2 13,-7 3,-4 6,-10 8,-15l6 -15 -51 -135 28 0 29 87z"/>
  <polygon id="4" class="fil0" points="1648,1989 1603,1989 1603,2107 1578,2107 1578,1989 1533,1989 1533,1969 1648,1969 "/>
  <path id="5" class="fil0" d="M1728 2090c7,0 14,-3 20,-8 6,-5 9,-11 9,-19l22 0 1 1c0,12 -5,23 -16,32 -10,9 -22,14 -36,14 -20,0 -34,-7 -45,-20 -11,-13 -16,-30 -16,-49l0 -6c0,-19 5,-35 16,-48 11,-14 25,-20 45,-20 15,0 28,5 37,14 10,10 15,21 15,35l-1 1 -22 0c0,-9 -3,-16 -9,-22 -5,-6 -12,-8 -20,-8 -13,0 -22,4 -27,14 -6,9 -9,21 -9,34l0 6c0,14 3,25 9,35 5,9 14,14 27,14z"/>
  <polygon id="6" class="fil0" points="1915,1989 1870,1989 1870,2107 1845,2107 1845,1989 1800,1989 1800,1969 1915,1969 "/>
  <path id="7" class="fil0" d="M1943 2107l0 -138 54 0c18,0 32,4 42,10 10,6 15,16 15,28 0,7 -2,12 -6,17 -3,6 -9,9 -16,12 9,2 15,6 20,12 5,6 7,12 7,20 0,13 -5,22 -14,29 -9,7 -22,10 -39,10l-63 0zm25 -60l0 41 38 0c9,0 16,-2 21,-6 5,-3 7,-8 7,-15 0,-6 -2,-11 -7,-15 -5,-4 -12,-5 -21,-5l-38 0zm0 -20l29 0c11,0 19,-1 24,-4 6,-3 8,-8 8,-14 0,-7 -2,-12 -8,-15 -5,-4 -13,-5 -24,-5l-29 0 0 38z"/>
  <polygon id="8" class="fil0" points="2177,1969 2202,1969 2202,2107 2177,2107 2177,2009 2176,2009 2116,2107 2091,2107 2091,1969 2116,1969 2116,2067 2116,2067 "/>
  <path id="9" class="fil0" d="M2296 2110c-20,0 -35,-7 -47,-19 -11,-13 -16,-30 -16,-50l0 -6c0,-19 6,-36 17,-49 11,-13 25,-19 42,-19 18,0 32,6 41,17 9,11 14,27 14,46l0 13 -88 0 0 1c0,13 3,25 9,33 6,9 15,13 28,13 8,0 16,-1 22,-4 6,-2 12,-5 16,-10l10 17c-5,4 -11,9 -19,12 -8,3 -18,5 -29,5zm-4 -123c-9,0 -16,3 -22,10 -6,6 -9,15 -10,26l0 0 62 0 0 -2c0,-10 -3,-18 -7,-25 -5,-6 -13,-9 -23,-9z"/>
  <path id="10" class="fil0" d="M2468 2033l0 74 -25 0 0 -185 71 0c20,0 35,5 46,15 11,10 17,24 17,40 0,17 -6,30 -17,41 -11,10 -26,15 -46,15l-46 0zm0 -20l46 0c13,0 22,-3 28,-10 6,-7 9,-15 9,-25 0,-11 -3,-19 -9,-26 -6,-7 -15,-11 -28,-11l-46 0 0 72z"/>
  <path id="11" class="fil0" d="M2693 2087c-5,7 -10,13 -17,17 -7,4 -15,6 -23,6 -15,0 -27,-5 -36,-15 -8,-9 -12,-24 -12,-44l0 -82 25 0 0 82c0,14 2,25 6,30 5,6 11,8 21,8 9,0 16,-2 22,-5 5,-4 10,-9 13,-15l0 -100 25 0 0 138 -23 0 -1 -20z"/>
  <path id="12" class="fil0" d="M2833 2070c0,-6 -2,-10 -6,-14 -4,-3 -12,-6 -24,-9 -16,-3 -28,-8 -37,-14 -9,-7 -13,-15 -13,-25 0,-12 5,-21 14,-29 10,-8 22,-12 37,-12 16,0 28,4 38,13 10,8 14,18 14,29l0 1 -24 0c0,-6 -3,-11 -8,-16 -5,-5 -12,-7 -20,-7 -9,0 -15,2 -20,6 -4,4 -6,8 -6,14 0,5 2,9 6,12 3,3 11,6 23,8 17,4 30,9 38,16 9,6 13,15 13,25 0,12 -5,22 -14,30 -10,8 -23,12 -39,12 -18,0 -31,-5 -42,-14 -10,-9 -14,-19 -14,-31l0 -1 24 0c1,9 4,16 10,20 6,4 14,6 22,6 9,0 16,-2 21,-6 5,-3 7,-8 7,-14z"/>
  <path id="13" class="fil0" d="M2915 1988c4,-7 10,-12 17,-16 7,-3 15,-5 23,-5 15,0 26,4 34,13 9,9 13,22 13,41l0 86 -25 0 0 -86c0,-12 -3,-20 -8,-26 -5,-5 -12,-8 -22,-8 -7,0 -13,2 -19,5 -6,2 -10,7 -13,12l0 103 -25 0 0 -198 25 0 0 79z"/>
  <polygon id="14" class="fil0" points="3116,2039 3041,2039 3041,2019 3116,2019 "/>
  <path id="15" class="fil0" d="M3197 2056l5 17 0 0 34 -104 28 0 -58 159c-3,9 -8,17 -15,24 -6,7 -15,11 -26,11 -2,0 -5,-1 -8,-1 -3,-1 -5,-1 -7,-1l2 -20c0,0 1,0 5,0 3,0 6,0 7,0 5,0 9,-2 13,-7 3,-4 6,-10 8,-15l6 -15 -51 -135 28 0 29 87z"/>
  <path id="16" class="fil0" d="M3286 2107l0 -138 54 0c19,0 33,4 43,10 10,6 15,16 15,28 0,7 -2,12 -6,17 -4,6 -10,9 -17,12 9,2 16,6 20,12 5,6 8,12 8,20 0,13 -5,22 -15,29 -9,7 -22,10 -39,10l-63 0zm25 -60l0 41 38 0c9,0 16,-2 21,-6 5,-3 7,-8 7,-15 0,-6 -2,-11 -7,-15 -5,-4 -12,-5 -21,-5l-38 0zm0 -20l30 0c10,0 18,-1 24,-4 5,-3 8,-8 8,-14 0,-7 -3,-12 -9,-15 -5,-4 -13,-5 -24,-5l-29 0 0 38z"/>
  <path id="17" class="fil0" d="M3491 2110c-20,0 -35,-7 -46,-19 -11,-13 -17,-30 -17,-50l0 -6c0,-19 6,-36 17,-49 12,-13 26,-19 42,-19 18,0 32,6 41,17 10,11 14,27 14,46l0 13 -88 0 0 1c0,13 3,25 9,33 6,9 15,13 28,13 8,0 16,-1 22,-4 7,-2 12,-5 17,-10l10 17c-5,4 -12,9 -20,12 -8,3 -18,5 -29,5zm-4 -123c-9,0 -16,3 -22,10 -5,6 -9,15 -10,26l0 0 62 0 0 -2c0,-10 -2,-18 -7,-25 -5,-6 -13,-9 -23,-9z"/>
  <path id="18" class="fil0" d="M3574 2087c7,0 12,-5 15,-16 3,-11 5,-27 6,-50l4 -52 91 0 0 118 18 0 0 66 -25 0 0 -46 -97 0 0 46 -25 0 0 -66 13 0zm47 -66c-1,16 -3,30 -5,40 -1,11 -4,20 -7,26l56 0 0 -95 -43 0 -1 29z"/>
  <path id="19" class="fil0" d="M3729 2037c0,-20 6,-37 17,-50 11,-14 26,-20 45,-20 19,0 34,6 45,20 11,13 17,29 17,50l0 3c0,20 -6,37 -17,50 -11,13 -26,20 -45,20 -19,0 -34,-7 -45,-20 -11,-13 -17,-30 -17,-50l0 -3zm26 3c0,14 3,26 9,36 6,9 15,14 27,14 12,0 21,-5 27,-14 7,-10 10,-22 10,-36l0 -3c0,-14 -3,-27 -10,-36 -6,-10 -15,-14 -27,-14 -12,0 -21,4 -27,14 -6,9 -9,22 -9,36l0 3z"/>
  <polygon id="20" class="fil0" points="3962,2074 3962,2074 4007,1969 4039,1969 4039,2107 4014,2107 4014,2011 4013,2011 3971,2107 3953,2107 3910,2009 3910,2009 3910,2107 3885,2107 3885,1969 3917,1969 "/>
  <path id="21" class="fil0" d="M4189 1969l0 138 -25 0 0 -118 -46 0 0 39c0,27 -4,47 -11,60 -7,13 -20,19 -37,19l-7 0 0 -21 6 -1c8,0 15,-4 18,-13 4,-8 5,-23 5,-44l0 -59 97 0z"/>
  <path id="22" class="fil0" d="M4279 2110c-20,0 -35,-7 -46,-19 -12,-13 -17,-30 -17,-50l0 -6c0,-19 6,-36 17,-49 11,-13 25,-19 42,-19 18,0 32,6 41,17 9,11 14,27 14,46l0 13 -88 0 0 1c0,13 3,25 9,33 6,9 15,13 28,13 8,0 16,-1 22,-4 6,-2 12,-5 17,-10l9 17c-5,4 -11,9 -19,12 -8,3 -18,5 -29,5zm-4 -123c-9,0 -16,3 -22,10 -6,6 -9,15 -10,26l0 0 62 0 0 -2c0,-10 -3,-18 -7,-25 -5,-6 -13,-9 -23,-9z"/>
  <polygon id="23" class="fil0" points="4469,2107 4444,2107 4444,2048 4383,2048 4383,2107 4358,2107 4358,1969 4383,1969 4383,2029 4444,2029 4444,1969 4469,1969 "/>
  <polygon id="24" class="fil0" points="4593,1969 4618,1969 4618,2107 4593,2107 4593,2009 4592,2009 4531,2107 4506,2107 4506,1969 4531,1969 4531,2067 4532,2067 "/>
  <path id="25" class="fil0" d="M4741 1969l25 0 0 138 -25 0 0 -98 -1 0 -61 98 -25 0 0 -138 25 0 0 98 1 0 61 -98zm6 -56l1 0c0,10 -3,18 -10,25 -7,6 -16,9 -28,9 -12,0 -21,-3 -28,-9 -7,-7 -10,-15 -9,-25l0 0 19 0c0,5 1,10 4,13 3,4 8,6 14,6 6,0 11,-2 14,-6 3,-3 4,-8 4,-13l19 0z"/>
  <g id="_217956243504">
   <circle class="fil1" cx="199" cy="2014" r="199"/>
   <path class="fil2" d="M292 2004c6,0 10,4 10,10 0,6 -4,11 -10,11l-186 0c-6,0 -11,-5 -11,-11l0 0c0,-6 5,-10 11,-10l10 0 176 0z"/>
  </g>
 </g>
</svg>
